<?xml version="1.0" encoding="iso-8859-1"?>
<!-- Generator: Adobe Illustrator 19.0.0, SVG Export Plug-In . SVG Version: 6.00 Build 0)  -->
<svg version="1.1" id="Layer_1" xmlns="http://www.w3.org/2000/svg" xmlns:xlink="http://www.w3.org/1999/xlink" x="0px" y="0px"
	 viewBox="0 0 512.002 512.002" style="enable-background:new 0 0 512.002 512.002;" xml:space="preserve">
<g transform="translate(-1)">
	<path style="fill:#D75A4A;" d="M318.794,414.898c0,53.628-43.476,97.103-97.103,97.103s-97.103-43.476-97.103-97.103
		s43.476-97.103,97.103-97.103S318.794,361.271,318.794,414.898"/>
	<path style="fill:#D13834;" d="M124.587,414.898c0-38.638,22.625-71.901,55.287-87.534c-17.249-26.959-47.386-44.879-81.77-44.879
		c-53.628,0-97.103,43.476-97.103,97.103s43.476,97.103,97.103,97.103c14.989,0,29.131-3.496,41.816-9.569
		C130.254,452.036,124.587,434.142,124.587,414.898"/>
	<path style="fill:#ED3F32;" d="M513.001,353.105c0,53.628-43.476,97.103-97.103,97.103c-53.628,0-97.103-43.476-97.103-97.103
		s43.476-97.103,97.103-97.103C469.525,256.002,513.001,299.477,513.001,353.105"/>
	<g>
		<path style="fill:#ED7161;" d="M195.208,467.864c0,4.873-3.955,8.828-8.828,8.828c-4.873,0-8.828-3.955-8.828-8.828
			c0-4.873,3.955-8.828,8.828-8.828C191.253,459.036,195.208,462.991,195.208,467.864"/>
		<path style="fill:#ED7161;" d="M371.759,361.933c0,4.873-3.955,8.828-8.828,8.828c-4.873,0-8.828-3.955-8.828-8.828
			c0-4.873,3.955-8.828,8.828-8.828C367.805,353.105,371.759,357.06,371.759,361.933"/>
		<path style="fill:#ED7161;" d="M212.888,379.57c-9.64,0-19.103-3.928-25.927-11.282c-3.319-3.575-3.107-9.154,0.459-12.473
			c3.566-3.31,9.163-3.116,12.473,0.468c5.085,5.464,13.091,7.168,19.994,4.184c4.246-1.845,11.29-6.321,10.646-15.581
			c-0.335-4.855,3.337-9.075,8.201-9.419c4.811-0.362,9.075,3.328,9.419,8.201c0.998,14.451-6.938,26.792-21.248,32.998
			C222.387,378.626,217.611,379.57,212.888,379.57"/>
		<path style="fill:#ED7161;" d="M91.062,344.264c-9.631,0-19.094-3.937-25.918-11.282c-3.31-3.584-3.098-9.163,0.477-12.482
			c3.566-3.319,9.154-3.098,12.473,0.468c5.085,5.491,13.118,7.177,19.977,4.184c4.246-1.845,11.29-6.321,10.655-15.581
			c-0.327-4.864,3.337-9.075,8.21-9.41c4.89-0.309,9.066,3.337,9.41,8.201c0.989,14.46-6.947,26.792-21.257,32.989
			C100.569,343.32,95.793,344.264,91.062,344.264"/>
		<path style="fill:#ED7161;" d="M389.44,328.45c-9.64,0-19.103-3.928-25.927-11.282c-3.319-3.575-3.107-9.154,0.459-12.473
			c3.566-3.319,9.154-3.116,12.473,0.468c5.085,5.464,13.091,7.159,19.994,4.184c6.841-2.966,11.105-9.975,10.584-17.426
			c-0.327-4.864,3.337-9.084,8.21-9.419c4.838-0.291,9.066,3.337,9.41,8.201c1.024,14.901-7.486,28.902-21.186,34.842
			C398.939,327.505,394.163,328.45,389.44,328.45"/>
	</g>
	<g>
		<path style="fill:#659C35;" d="M342.942,15.588c-12.756,61.678-73.084,76.597-130.074,55.031
			C225.614,8.941,285.412-20.278,342.942,15.588"/>
		<path style="fill:#659C35;" d="M81.968,17.557c55.031-41.834,105.843-2.489,130.895,53.063
			C160.225,105.224,107.021,73.109,81.968,17.557"/>
	</g>
	<g>
		<path style="fill:#ED7161;" d="M415.897,423.726c-4.882,0-8.828-3.955-8.828-8.828c0-4.873,3.946-8.828,8.828-8.828
			c29.211,0,52.966-23.755,52.966-52.966c0-4.873,3.946-8.828,8.828-8.828c4.882,0,8.828,3.955,8.828,8.828
			C486.518,392.043,454.836,423.726,415.897,423.726"/>
		<path style="fill:#ED7161;" d="M221.69,485.519c-4.882,0-8.828-3.955-8.828-8.828c0-4.873,3.946-8.828,8.828-8.828
			c29.21,0,52.966-23.755,52.966-52.966c0-4.873,3.946-8.828,8.828-8.828c4.882,0,8.828,3.955,8.828,8.828
			C292.311,453.837,260.629,485.519,221.69,485.519"/>
		<path style="fill:#ED7161;" d="M98.104,450.208c-38.938,0-70.621-31.682-70.621-70.621c0-4.873,3.946-8.828,8.828-8.828
			s8.828,3.955,8.828,8.828c0,29.21,23.755,52.966,52.966,52.966c4.882,0,8.828,3.955,8.828,8.828
			C106.932,446.254,102.986,450.208,98.104,450.208"/>
	</g>
	<g>
		<path style="fill:#4C322C;" d="M389.406,300.144c-1.183,0-2.392-0.238-3.54-0.75C260.117,244.08,204.035,173.53,204.035,70.627
			c0-4.882,3.946-8.828,8.828-8.828s8.828,3.946,8.828,8.828c0,96.221,51.226,159.806,171.273,212.604
			c4.467,1.969,6.497,7.168,4.529,11.635C396.044,298.175,392.804,300.144,389.406,300.144"/>
		<path style="fill:#4C322C;" d="M89.277,317.795c-4.882,0-8.828-3.955-8.828-8.828c0-148.577,61.458-205.992,127.859-245.91
			c4.193-2.525,9.604-1.165,12.12,3.019c2.516,4.175,1.156,9.604-3.01,12.111C145.8,121.231,98.104,176.942,98.104,308.967
			C98.104,313.84,94.158,317.795,89.277,317.795"/>
		<path style="fill:#4C322C;" d="M212.863,353.105c-0.883,0-1.766-0.132-2.648-0.406c-1.81-0.565-44.473-14.468-62.473-63.479
			c-20.303-55.287-0.9-130.419,57.653-223.303c2.595-4.131,8.077-5.35,12.173-2.763c4.131,2.604,5.367,8.051,2.763,12.173
			c-54.572,86.554-73.984,158.296-56.143,207.457c14.848,40.889,49.867,52.604,51.359,53.08c4.617,1.492,7.186,6.453,5.711,11.087
			C220.057,350.704,216.597,353.105,212.863,353.105"/>
	</g>
</g>
<g>
</g>
<g>
</g>
<g>
</g>
<g>
</g>
<g>
</g>
<g>
</g>
<g>
</g>
<g>
</g>
<g>
</g>
<g>
</g>
<g>
</g>
<g>
</g>
<g>
</g>
<g>
</g>
<g>
</g>
</svg>
