<?xml version="1.0" encoding="iso-8859-1"?>
<!-- Generator: Adobe Illustrator 19.0.0, SVG Export Plug-In . SVG Version: 6.00 Build 0)  -->
<svg version="1.1" id="Layer_1" xmlns="http://www.w3.org/2000/svg" xmlns:xlink="http://www.w3.org/1999/xlink" x="0px" y="0px"
	 viewBox="0 0 512 512" style="enable-background:new 0 0 512 512;" xml:space="preserve">
<path style="fill:#D6374C;" d="M323.348,144.685c-24.798,0-47.862,8.04-67.348,21.738c-19.485-13.698-42.55-21.738-67.348-21.738
	c-69.575,0-125.978,62.432-125.978,139.447c0,77.017,49.124,220.265,142.617,220.265c19.261,0,33.197-3.954,50.708-21.466
	c17.511,17.511,31.447,21.466,50.708,21.466c93.493,0,142.617-143.248,142.617-220.265
	C449.326,207.117,392.923,144.685,323.348,144.685z"/>
<g>
	<path style="fill:#F4ABBE;" d="M100.698,284.131H85.489c0-64.312,46.279-116.634,103.164-116.634v15.209
		C140.154,182.707,100.698,228.205,100.698,284.131z"/>
	<path style="fill:#F4ABBE;" d="M103.306,376.368c-8.271-23.071-14.167-48.335-16.604-71.141l15.124-1.615
		c2.311,21.64,7.922,45.656,15.796,67.623L103.306,376.368z"/>
</g>
<path style="fill:#51AA5B;" d="M302.537,26.264c-25.701,0-46.536,20.835-46.536,46.536v46.536h46.536
	c25.701,0,46.536-20.835,46.536-46.536V26.264H302.537z"/>
<path style="fill:#7A1B2E;" d="M323.348,137.08c-20.81,0-41.215,5.37-59.744,15.626v-25.766h38.931
	c29.853,0,54.139-24.287,54.139-54.14V18.66h-54.139c-15.273,0-29.079,6.367-38.931,16.574V0h-15.209v72.8v54.14v25.766
	c-18.528-10.257-38.934-15.626-59.744-15.626c-73.657,0-133.581,65.967-133.581,147.051c0,43.845,14.573,99.804,37.127,142.562
	c13.395,25.394,29.05,45.577,46.532,59.985C159.114,503.48,181.509,512,205.292,512c18.153,0,33.309-3.267,50.708-18.628
	C273.399,508.733,288.554,512,306.708,512c23.783,0,46.178-8.52,66.564-25.323c17.481-14.409,33.137-34.592,46.532-59.985
	c22.554-42.758,37.127-98.717,37.127-142.562C456.93,203.047,397.006,137.08,323.348,137.08z M302.537,33.869h38.93V72.8
	c0,21.467-17.465,38.931-38.93,38.931h-38.931V72.8C263.605,51.334,281.069,33.869,302.537,33.869z M406.352,419.597
	c-33.653,63.802-72.762,77.194-99.643,77.194c-16.922,0-29.159-3.066-45.33-19.238l-5.378-5.378l-5.378,5.378
	c-16.171,16.172-28.408,19.238-45.33,19.238c-26.882,0-65.99-13.392-99.643-77.194c-21.486-40.735-35.37-93.909-35.37-135.466
	c0-72.698,53.102-131.842,118.373-131.842c22.255,0,44.031,7.039,62.974,20.355l4.373,3.074l4.373-3.074
	c18.944-13.317,40.719-20.355,62.974-20.355c65.271,0,118.373,59.145,118.373,131.842
	C441.721,325.688,427.837,378.862,406.352,419.597z"/>
<path style="fill:#95E49C;" d="M302.537,96.524h-16.118V81.315h16.118c4.694,0,8.513-3.819,8.513-8.514V56.682h15.209V72.8
	C326.259,85.882,315.616,96.524,302.537,96.524z"/>
<g>
</g>
<g>
</g>
<g>
</g>
<g>
</g>
<g>
</g>
<g>
</g>
<g>
</g>
<g>
</g>
<g>
</g>
<g>
</g>
<g>
</g>
<g>
</g>
<g>
</g>
<g>
</g>
<g>
</g>
</svg>
